<svg width="180" height="180" viewBox="0 0 180 180" fill="none" xmlns="http://www.w3.org/2000/svg">
<rect width="180" height="180" fill="#E7F5FF"/>
<rect x="15" y="15" width="150" height="150" rx="5" fill="#D0EBFF"/>
<rect x="15" y="15" width="150" height="150" rx="5" stroke="#74C0FC" stroke-width="2"/>
<path d="M139.223 25.0949C138.283 24.3707 137.188 23.8743 136.023 23.6445C134.859 23.4148 133.658 23.458 132.513 23.7708L73.3401 39.6774C71.2869 40.2289 69.4752 41.447 68.1898 43.1403C66.9043 44.8336 66.2181 46.9061 66.2388 49.0319V116.126C66.2388 118.127 64.9445 119.854 62.9406 120.528L62.9049 120.543L47.4674 125.887C41.5626 127.861 37.7388 133.344 37.7388 139.849C37.7172 142.495 38.3325 145.107 39.5329 147.464C40.7332 149.822 42.4832 151.856 44.6352 153.395C47.4065 155.409 50.7426 156.495 54.1679 156.501C55.9599 156.498 57.7395 156.204 59.4374 155.631L59.5502 155.592L66.034 153.235C68.8465 152.296 71.2947 150.5 73.0351 148.1C74.7755 145.699 75.721 142.814 75.7388 139.849V76.9115C75.7388 74.7472 77.1549 72.9897 79.3488 72.4376L79.4112 72.4197L131.254 58.5735C131.43 58.5283 131.613 58.5237 131.79 58.56C131.967 58.5964 132.134 58.6728 132.277 58.7833C132.42 58.8939 132.536 59.0357 132.616 59.1979C132.696 59.3601 132.738 59.5385 132.739 59.7194V101.855C132.739 103.859 131.477 105.53 129.441 106.213L129.366 106.24L114.258 111.616C111.32 112.582 108.766 114.459 106.965 116.973C105.163 119.487 104.209 122.509 104.239 125.602C104.212 128.255 104.825 130.876 106.026 133.243C107.226 135.61 108.979 137.653 111.135 139.199C113.247 140.725 115.695 141.72 118.273 142.1C120.85 142.48 123.481 142.233 125.943 141.381L126.05 141.345L132.534 138.985C135.346 138.047 137.794 136.252 139.535 133.851C141.275 131.451 142.221 128.567 142.239 125.602V31.2194C142.245 30.0346 141.976 28.8645 141.453 27.8016C140.929 26.7387 140.166 25.812 139.223 25.0949V25.0949Z" fill="#BE4BDB"/>
</svg>
