<?xml version="1.0" encoding="iso-8859-1"?>
<!-- Uploaded to: SVG Repo, www.svgrepo.com, Generator: SVG Repo Mixer Tools -->
<svg fill="#000000" height="800px" width="800px" version="1.1" id="Layer_1" xmlns="http://www.w3.org/2000/svg" xmlns:xlink="http://www.w3.org/1999/xlink" 
	 viewBox="0 0 512 512" xml:space="preserve">
<g>
	<g>
		<path d="M41.915,376.173c-0.935-6.265-0.509-12.513,1.136-18.409l-32.429,7.5c-7.376,1.706-11.973,9.068-10.266,16.445
			c1.465,6.337,7.106,10.623,13.344,10.623c1.023,0,2.062-0.116,3.101-0.356l27.592-6.381
			C43.243,382.589,42.402,379.437,41.915,376.173z"/>
	</g>
</g>
<g>
	<g>
		<path d="M356.265,314.268c-0.52-0.683-1.11-0.77-1.586-0.763c-9.64,0.109-18.896-4.092-25.298-11.42
			c-1.474-1.688-2.756-3.501-3.839-5.408c-2.252-3.97-7.617-4.752-10.747-1.432l-22.577,23.952
			c-6.926,7.349-16.299,11.561-26.394,11.859c-0.383,0.011-0.765,0.017-1.145,0.017c-9.674,0-18.832-3.631-25.903-10.295v-0.001
			c-15.169-14.298-15.877-38.271-1.579-53.441l42.054-44.614c1.345-1.426,1.994-3.364,1.795-5.314
			c-1.132-11.115,1.76-22.615,8.57-32.184c0.473-0.665,0.945-1.298,1.429-1.917c0.789-1.007,0.557-2.022,0.348-2.538
			c-0.213-0.524-0.762-1.429-2.052-1.607c-2.597-0.356-5.199-0.531-7.786-0.531c-15.746,0-30.994,6.468-41.918,18.057
			c-2.273,2.412-6.87,10.377-11.315,18.079c-4.575,7.929-9.76,16.914-15.031,24.652c-5.62,8.252-12.849,15.143-21.49,20.483
			l-72.482,44.786c-19.803,12.236-37.92,27.009-53.891,43.943l-0.498,0.528c-6.071,6.436-9.282,15.207-8.21,23.989
			c1.14,9.352,6.558,17.457,14.758,22.14c41.356,23.616,76.95,57.195,102.933,97.109c4.962,7.622,12.972,12.46,21.979,13.27
			c8.888,0.807,17.51-2.466,23.646-8.963c16.659-17.636,30.837-37.463,42.142-58.93l40.4-76.72
			c3.368-6.395,8.299-11.933,14.263-16.016c5.808-3.976,11.898-7.245,17.786-10.405c3.278-1.759,6.668-3.578,9.88-5.458
			c6.704-3.921,11.161-8.328,12.232-12.089C357.075,315.908,356.715,314.858,356.265,314.268z M202.151,420.535
			c-1.484,1.574-3.484,2.369-5.488,2.369c-1.855,0-3.713-0.68-5.17-2.053l-49.823-46.962c-3.03-2.856-3.171-7.628-0.315-10.658
			c2.855-3.031,7.628-3.173,10.658-0.315l49.823,46.963C204.867,412.733,205.008,417.505,202.151,420.535z M234.968,385.721
			c-1.484,1.574-3.484,2.369-5.488,2.369c-1.855,0-3.713-0.68-5.17-2.053l-49.823-46.962c-3.03-2.856-3.171-7.628-0.315-10.658
			c2.855-3.031,7.628-3.173,10.658-0.315l49.823,46.963C237.683,377.918,237.824,382.69,234.968,385.721z"/>
	</g>
</g>
<g>
	<g>
		<path d="M421.921,93.351L248.171,277.68c-8.595,9.119-8.17,23.53,0.948,32.126v-0.001c4.417,4.164,10.197,6.362,16.259,6.179
			c6.067-0.18,11.702-2.711,15.866-7.127l173.75-184.33L421.921,93.351z"/>
	</g>
</g>
<g>
	<g>
		<path d="M510.555,55.988l-16.011-43.124c-1.362-3.669-4.496-6.128-8.382-6.58s-7.501,1.224-9.667,4.482l-45.063,67.769
			c-0.684,1.132-0.487,2.6,0.48,3.511l35.82,33.765c1.132,1.067,2.921,1.014,3.988-0.117l34.051-36.125
			C511.762,73.212,513.596,64.176,510.555,55.988z"/>
	</g>
</g>
</svg>