<?xml version="1.0" encoding="iso-8859-1"?>
<!-- Uploaded to: SVG Repo, www.svgrepo.com, Generator: SVG Repo Mixer Tools -->
<svg fill="#000000" height="800px" width="800px" version="1.1" id="Layer_1" xmlns="http://www.w3.org/2000/svg" xmlns:xlink="http://www.w3.org/1999/xlink" 
	 viewBox="0 0 512 512" xml:space="preserve">
<g>
	<g>
		<path d="M413.649,60.918L262.638,211.931c8.132,4.715,14.938,9.652,21.378,16.091c6.441,6.441,11.377,13.246,16.091,21.378
			L451.119,98.388L413.649,60.918z"/>
	</g>
</g>
<g>
	<g>
		<path d="M504.329,8.139l-0.43-0.43c-10.229-10.228-26.812-10.228-37.041,0l-43.537,43.537l37.47,37.47l43.537-43.537
			C514.558,34.951,514.558,18.368,504.329,8.139z"/>
	</g>
</g>
<g>
	<g>
		<path d="M267.918,244.042c-27.987-27.987-73.525-27.986-101.511,0.001c-8.813,8.813-15.199,19.813-18.468,31.808
			c-1.544,5.667-7.156,9.221-12.938,8.195c-36.996-6.562-74.903,5.343-101.405,31.844c-44.794,44.794-44.794,117.68,0,162.474
			c44.794,44.794,117.68,44.794,162.474,0c26.5-26.5,38.405-64.409,31.843-101.405c-1.025-5.783,2.528-11.394,8.195-12.938
			c11.998-3.269,22.998-9.656,31.81-18.468C295.905,317.568,295.905,272.029,267.918,244.042z M181.239,391.686
			c-16.835,16.835-44.128,16.835-60.963,0c-16.835-16.835-16.835-44.128,0-60.963c16.835-16.835,44.128-16.835,60.963,0
			C198.072,347.558,198.072,374.852,181.239,391.686z"/>
	</g>
</g>
</svg>