<?xml version="1.0" encoding="iso-8859-1"?>
<!-- Uploaded to: SVG Repo, www.svgrepo.com, Generator: SVG Repo Mixer Tools -->
<svg fill="#000000" height="800px" width="800px" version="1.1" id="Layer_1" xmlns="http://www.w3.org/2000/svg" xmlns:xlink="http://www.w3.org/1999/xlink" 
	 viewBox="0 0 512 512" xml:space="preserve">
<g>
	<g>
		<polygon points="284.566,370.557 227.434,370.557 223.373,446.539 288.627,446.539 		"/>
	</g>
</g>
<g>
	<g>
		<path d="M347.552,462.904H164.448c-15.69,0-28.85,13.118-28.85,28.809V512h240.804v-20.287
			C376.402,476.022,363.242,462.904,347.552,462.904z"/>
	</g>
</g>
<g>
	<g>
		<path d="M358.942,120.402h8.127c2.05,0,3.488,0.761,5.826,1.806V84.759c0-38.394-25.717-70.838-60.785-80.88v20.501
			c0,5.611-4.91,10.158-10.521,10.158s-10.521-4.548-10.521-10.158V0.719C289.9,0.69,289.419,0,288.511,0H256v24.381
			c0,5.611-4.325,10.158-9.936,10.158s-9.936-4.548-9.936-10.158V0h-12.639c-7.984,0-15.416,1.792-23.599,3.88v20.501
			c0,5.611-4.325,10.158-9.936,10.158s-9.936-4.548-9.936-10.158V12.706c-24.548,14.738-40.913,41.519-40.913,72.053v36.706
			c2.338-0.582,2.973-1.064,4.471-1.064h8.127c5.611,0,10.158,4.91,10.158,10.521s-4.548,10.521-10.158,10.521h-8.127
			c-1.499,0-2.133-0.908-4.471-1.49v35.693c2.338-0.582,2.973-1.472,4.471-1.472h8.127c5.611,0,10.158,4.91,10.158,10.521
			s-4.548,10.521-10.158,10.521h-8.127c-1.499,0-2.133-0.5-4.471-1.082v35.693c2.338-0.582,2.973-0.711,4.471-0.711h8.127
			c5.611,0,10.158,4.325,10.158,9.936s-4.548,9.936-10.158,9.936h-8.127c-1.499,0-2.133-0.091-4.471-0.674v17.726
			c0,46.378,38.006,84.647,84.384,84.647h65.023c46.377,0,84.383-38.269,84.383-84.646v-18.468
			c-2.338,1.045-3.776,1.416-5.826,1.416h-8.127c-5.611,0-10.158-4.325-10.158-9.936s4.548-9.936,10.158-9.936h8.127
			c2.05,0,3.488,0.408,5.826,1.453v-37.176c-2.338,1.045-3.776,1.824-5.826,1.824h-8.127c-5.611,0-10.158-4.91-10.158-10.521
			s4.548-10.521,10.158-10.521h8.127c2.05,0,3.488,1.169,5.826,2.214V139.21c-2.338,1.045-3.776,2.233-5.826,2.233h-8.127
			c-5.611,0-10.158-4.91-10.158-10.521S353.333,120.402,358.942,120.402z M299.343,248.986h-88.042
			c-5.611,0-10.158-4.325-10.158-9.936s4.547-9.936,10.158-9.936h88.042c5.611,0,10.158,4.325,10.158,9.936
			S304.953,248.986,299.343,248.986z M299.343,195.215h-88.042c-5.611,0-10.158-4.91-10.158-10.521s4.547-10.521,10.158-10.521
			h88.042c5.611,0,10.158,4.91,10.158,10.521S304.953,195.215,299.343,195.215z M299.343,141.443h-88.042
			c-5.611,0-10.158-4.91-10.158-10.521s4.547-10.521,10.158-10.521h88.042c5.611,0,10.158,4.91,10.158,10.521
			S304.953,141.443,299.343,141.443z"/>
	</g>
</g>
</svg>